<svg xmlns="http://www.w3.org/2000/svg" width="40" height="40" viewBox="0 0 40 40">
  <rect x="1" y="1" width="38" height="38" fill="#00247d" stroke="#ccc" stroke-width="1"/>
  <g transform="scale(0.4) translate(10, 10)">
    <path d="M0,0 L60,30 M60,0 L0,30" stroke="white" stroke-width="6"/>
    <path d="M0,0 L60,30 M60,0 L0,30" stroke="#cc142b" stroke-width="2"/>
    <path d="M30,0 L30,30 M0,15 L60,15" stroke="white" stroke-width="10"/>
    <path d="M30,0 L30,30 M0,15 L60,15" stroke="#cc142b" stroke-width="6"/>
  </g>
  <g transform="translate(25, 25) scale(0.1)">
    <polygon points="0,-70 20,-25 75,-20 30,15 45,70 0,40 -45,70 -30,15 -75,-20 -20,-25" fill="#cc142b"/>
  </g>
</svg>